<?xml version="1.0" encoding="utf-8"?>
<!-- Generator: Adobe Illustrator 24.0.0, SVG Export Plug-In . SVG Version: 6.00 Build 0)  -->
<svg version="1.1" id="Layer_1" xmlns="http://www.w3.org/2000/svg" xmlns:xlink="http://www.w3.org/1999/xlink" x="0px" y="0px"
	 viewBox="0 0 519 245" style="enable-background:new 0 0 519 245;" xml:space="preserve">
<style type="text/css">
	.st0{fill:url(#SVGID_1_);}
	.st1{fill:url(#SVGID_2_);}
	.st2{opacity:0.66;fill:url(#SVGID_3_);}
	.st3{opacity:0.16;fill:#FFFFFF;}
	.st4{fill:#F7F6F8;}
</style>
<linearGradient id="SVGID_1_" gradientUnits="userSpaceOnUse" x1="148.1253" y1="109.0909" x2="320.5199" y2="109.0909">
	<stop  offset="0" style="stop-color:#68B2FF"/>
	<stop  offset="1" style="stop-color:#0065C3"/>
</linearGradient>
<path class="st0" d="M313.1,132.87H155.54c-4.1,0-7.42-3.32-7.42-7.42V92.73c0-4.1,3.32-7.42,7.42-7.42H313.1
	c4.1,0,7.42,3.32,7.42,7.42v32.72C320.52,129.55,317.2,132.87,313.1,132.87z"/>
<linearGradient id="SVGID_2_" gradientUnits="userSpaceOnUse" x1="148.1253" y1="109.0909" x2="320.5199" y2="109.0909">
	<stop  offset="0" style="stop-color:#68B2FF"/>
	<stop  offset="1" style="stop-color:#0065C3"/>
</linearGradient>
<path class="st1" d="M313.1,132.87H155.54c-4.1,0-7.42-3.32-7.42-7.42V92.73c0-4.1,3.32-7.42,7.42-7.42H313.1
	c4.1,0,7.42,3.32,7.42,7.42v32.72C320.52,129.55,317.2,132.87,313.1,132.87z"/>
<linearGradient id="SVGID_3_" gradientUnits="userSpaceOnUse" x1="148.1253" y1="109.0909" x2="195.3817" y2="109.0909">
	<stop  offset="0" style="stop-color:#68B2FF"/>
	<stop  offset="0.4462" style="stop-color:#66B1FE"/>
	<stop  offset="0.6069" style="stop-color:#5FACFA"/>
	<stop  offset="0.7215" style="stop-color:#54A3F3"/>
	<stop  offset="0.8141" style="stop-color:#4396E9"/>
	<stop  offset="0.8935" style="stop-color:#2D86DD"/>
	<stop  offset="0.9625" style="stop-color:#1272CD"/>
	<stop  offset="1" style="stop-color:#0065C3"/>
</linearGradient>
<path class="st2" d="M195.38,85.31h-38.23c-4.99,0-9.03,4.04-9.03,9.03v29.49c0,4.99,4.04,9.03,9.03,9.03h38.23V85.31z"/>
<path class="st3" d="M311.49,85.31H157.16c-4.99,0-9.03,4.04-9.03,9.03v1.37c23.85,18.41,53.74,29.37,86.2,29.37
	s62.35-10.96,86.2-29.37v-1.37C320.52,89.36,316.48,85.31,311.49,85.31z"/>
<path class="st4" d="M184.28,107.76l-1.56-1.56c-0.22-0.22-0.56-0.22-0.78,0l-0.56,0.55c-1.06-4.4-5.04-7.59-9.66-7.59
	c-2.28,0-4.5,0.79-6.26,2.22c-1.7,1.38-2.9,3.29-3.4,5.41l-2.84,2.84c-0.21,0.21-0.21,0.56,0,0.78l1.56,1.56
	c0.1,0.1,0.24,0.16,0.39,0.16c0.15,0,0.29-0.06,0.39-0.16l0.56-0.55c1.06,4.4,5.04,7.59,9.66,7.59c2.28,0,4.5-0.79,6.26-2.22
	c1.69-1.38,2.9-3.29,3.4-5.41l2.85-2.84C184.5,108.33,184.5,107.98,184.28,107.76 M171.77,117.91c-4.43,0-8.19-3.31-8.76-7.69
	c-0.03-0.21-0.17-0.38-0.37-0.45c-0.06-0.02-0.12-0.03-0.18-0.03c-0.14,0-0.29,0.06-0.39,0.16l-0.9,0.9l-0.78-0.78l2.56-2.57v0
	l0.55-0.55l0.73,0.73c0,0,0,0,0,0l2.38,2.38l-0.78,0.78l-0.92-0.92c-0.17-0.17-0.43-0.21-0.64-0.1c-0.21,0.11-0.33,0.34-0.29,0.58
	c0.3,1.82,1.24,3.49,2.65,4.7c1.43,1.22,3.25,1.9,5.13,1.9c3.28,0,6.18-2.02,7.35-5.02l0.48,0.49c0.02,0.02,0.04,0.03,0.06,0.05
	c0,0,0.01,0.01,0.02,0.01c0.02,0.01,0.03,0.02,0.05,0.03c0,0,0.01,0,0.01,0.01c0.02,0.01,0.04,0.02,0.06,0.03l0.02,0.01
	c0.02,0,0.04,0.01,0.05,0.02c0,0,0.01,0,0.01,0C178.5,115.75,175.32,117.91,171.77,117.91 M175.71,108.54l2.54,2.54
	c-0.87,2.83-3.49,4.78-6.48,4.78c-2.64,0-4.96-1.49-6.07-3.75c0.05,0.01,0.1,0.02,0.14,0.02c0.15,0,0.29-0.06,0.39-0.16l1.56-1.56
	c0.22-0.22,0.22-0.56,0-0.78l-2.54-2.54c0.87-2.83,3.49-4.78,6.48-4.78c2.64,0,4.95,1.5,6.07,3.75c-0.05-0.01-0.1-0.02-0.15-0.02
	c-0.14,0-0.29,0.06-0.39,0.16l-1.56,1.56C175.5,107.98,175.5,108.33,175.71,108.54 M180.55,110.72L180.55,110.72l-0.55,0.55
	l-0.73-0.73l-2.38-2.38l0.78-0.78l0.92,0.92c0.17,0.17,0.43,0.21,0.64,0.1c0.21-0.11,0.33-0.34,0.29-0.58
	c-0.3-1.82-1.24-3.5-2.65-4.71c-1.43-1.22-3.25-1.9-5.13-1.9c-3.28,0-6.18,2.02-7.35,5.02l-0.49-0.49
	c-0.01-0.02-0.03-0.03-0.05-0.05c0,0-0.01-0.01-0.01-0.01c-0.02-0.01-0.04-0.02-0.05-0.03c0,0-0.01,0-0.01-0.01
	c-0.02-0.01-0.04-0.02-0.06-0.03c0,0-0.01,0-0.02-0.01c-0.02-0.01-0.04-0.01-0.06-0.02c0,0-0.01,0-0.01,0
	c1.38-3.17,4.56-5.33,8.11-5.33c4.43,0,8.19,3.31,8.76,7.69c0.03,0.21,0.17,0.38,0.37,0.45c0.2,0.07,0.42,0.02,0.57-0.13l0.91-0.91
	l0.78,0.78L180.55,110.72z"/>
<path class="st4" d="M171.77,104.12h-0.02c-0.3,0-0.55,0.25-0.55,0.55c0,0.3,0.25,0.55,0.55,0.55h0h0.01c0.3,0,0.55-0.25,0.55-0.55
	C172.32,104.37,172.08,104.12,171.77,104.12"/>
<path class="st4" d="M169.9,104.49c-1.01,0.41-1.87,1.16-2.42,2.11c-0.15,0.26-0.06,0.6,0.2,0.75c0.09,0.05,0.18,0.07,0.27,0.07
	c0.19,0,0.38-0.1,0.48-0.28c0.43-0.74,1.09-1.32,1.88-1.64c0.28-0.12,0.42-0.44,0.3-0.72C170.5,104.51,170.18,104.38,169.9,104.49"
	/>
<g>
</g>
<g>
</g>
<g>
</g>
<g>
</g>
<g>
</g>
<g>
</g>
<g>
</g>
<g>
</g>
<g>
</g>
<g>
</g>
<g>
</g>
<g>
</g>
<g>
</g>
<g>
</g>
<g>
</g>
</svg>
